PathFileType	4	(X/Y/Z)	E:\Qualisys_Data\Carbon_Farble_Plate\Data\Amateur_Runner\S14\T2\S14T2V11_c3d.trc
DataRate	CameraRate	NumFrames	NumMarkers	Units	OrigDataRate	OrigDataStartFrame	OrigNumFrames
200.000000	200.000000	4	39	mm	200.000000	250	334
Frame#	Time	LSHO			RSHO			LICST			RICST			LASIS			LHEEL			RASIS			LTROC			RTROC			SACR			LTH1			LSK4			LTH2			LTH3			RHM5			LSK2			LTH4			RTH1			LTOE			RTH2			RTH3			RTH4			LLEP			RLEP			LSK1			LSK3			RSK1			LHM5			RSK2			LFT1			RSK3			RSK4			LLME			RLME			RTOE			RHEEL			RFT1			RFT2			LFT2			
		X1	Y1	Z1	X2	Y2	Z2	X3	Y3	Z3	X4	Y4	Z4	X5	Y5	Z5	X6	Y6	Z6	X7	Y7	Z7	X8	Y8	Z8	X9	Y9	Z9	X10	Y10	Z10	X11	Y11	Z11	X12	Y12	Z12	X13	Y13	Z13	X14	Y14	Z14	X15	Y15	Z15	X16	Y16	Z16	X17	Y17	Z17	X18	Y18	Z18	X19	Y19	Z19	X20	Y20	Z20	X21	Y21	Z21	X22	Y22	Z22	X23	Y23	Z23	X24	Y24	Z24	X25	Y25	Z25	X26	Y26	Z26	X27	Y27	Z27	X28	Y28	Z28	X29	Y29	Z29	X30	Y30	Z30	X31	Y31	Z31	X32	Y32	Z32	X33	Y33	Z33	X34	Y34	Z34	X35	Y35	Z35	X36	Y36	Z36	X37	Y37	Z37	X38	Y38	Z38	X39	Y39	Z39	

251	1.25	1299.520629882812	1456.140258789062	-468.8087158203125	1413.985473632812	1449.654418945312	-202.0983123779297	1323.818481445312	992.257080078125	-444.53271484375	1358.779418945312	1006.262145996094	-173.2572021484375	1368.70458984375	943.1636962890624	-420.6253967285156	1437.418212890625	67.61283874511719	-307.6660461425781	1381.25634765625	960.5302124023438	-190.2675170898438	1246.677124023438	866.3461303710938	-458.653564453125	1227.996826171875	896.8152465820312	-125.082893371582	1194.906860351562	995.0307006835938	-314.5937805175781	1376.1455078125	653.5516967773438	-464.3186950683594	1398.611694335938	283.1198425292969	-394.86767578125	1311.003295898438	632.9783325195312	-424.77685546875	1423.859375	570.6555786132812	-433.6834411621094	797.4544067382812	202.0482177734375	-147.7512512207031	1383.932983398438	379.8163146972656	-413.2559814453125	1352.163696289062	546.0494384765625	-406.2214660644531	1297.153076171875	657.4714965820312	-134.6577606201172	1680.899169921875	140.8014984130859	-370.3443298339844	1223.957397460938	678.893798828125	-122.1837158203125	1270.433959960938	561.2141723632812	-154.7976531982422	1190.800659179688	584.1502075195312	-139.8243560791016	1411.264038085938	490.2083740234375	-419.7804870605469	1186.89404296875	510.556640625	-141.0975036621094	1465.373413085938	391.2593688964844	-419.4416809082031	1478.719848632812	291.4385681152344	-404.8537292480469	1096.7041015625	427.1919250488281	-140.7935485839844	1618.7607421875	89.03660583496094	-417.8318786621094	1052.65234375	501.0564270019531	-143.7478637695312	1461.569946289062	48.34407043457031	-286.1358947753906	1005.200134277344	379.6686401367188	-155.8767242431641	971.2792358398438	451.3258972167969	-158.5663604736328	1478.051147460938	109.2085571289062	-376.7830810546875	834.3619384765625	339.7498168945312	-178.4815826416016	835.4302978515625	125.0982208251953	-197.8914184570312	805.0138549804688	381.8403015136719	-241.1383666992188	782.8836669921875	358.3511047363281	-271.6014709472656	773.9796142578125	376.7650146484375	-218.4991149902344	1448.650634765625	36.10865783691406	-338.1911926269531
252	1.255	1316.031982421875	1451.961791992188	-469.7296142578125	1429.675537109375	1446.0556640625	-202.6141204833984	1338.956787109375	988.459228515625	-444.7025756835938	1373.973876953125	1002.926452636719	-173.5221557617188	1384.146728515625	939.7529296875	-420.8558654785156	1447.041137695312	67.95699310302734	-306.9046020507812	1396.964477539062	957.4066162109376	-190.4060668945312	1262.150024414062	862.4767456054688	-458.0090942382812	1243.809326171875	892.8123779296875	-124.5366439819336	1210.441772460938	991.1023559570312	-314.5309448242188	1391.494506835938	650.2266845703125	-461.6592102050781	1412.4873046875	279.4574584960938	-393.1675415039062	1327.282470703125	629.2330322265625	-423.5137329101562	1439.795288085938	566.7525634765625	-432.5376281738281	812.6542358398438	205.4307861328125	-147.0877380371094	1398.998657226562	376.5752563476562	-412.4127502441406	1368.074584960938	542.2259521484375	-405.0698852539062	1315.357421875	653.5781860351562	-134.0074615478516	1694.324584960938	131.9641876220703	-366.8372802734375	1241.844482421875	674.372314453125	-121.6367568969727	1290.011596679688	557.3106689453125	-153.5936737060547	1210.107788085938	579.1876220703125	-138.8777465820312	1427.03173828125	486.0970153808594	-418.9057922363281	1206.780151367188	505.8560485839844	-139.9990234375	1480.290405273438	387.1754760742188	-418.2131958007812	1493.09033203125	287.0754699707031	-403.3919677734375	1115.816772460938	424.1823120117188	-139.1375274658203	1629.682739257812	83.27946472167969	-414.8672790527344	1073.176147460938	498.716064453125	-143.234619140625	1469.336791992188	46.05537796020508	-284.3969116210938	1023.442565917969	378.4051818847656	-155.5321960449219	990.3706665039062	451.0845031738281	-158.2434234619141	1489.937377929688	105.4965209960938	-374.7875061035156	851.9410400390625	342.1978759765625	-178.0407257080078	849.579833984375	127.7785720825195	-197.1156921386719	823.3602294921875	384.8925476074219	-241.7830657958984	800.9593505859375	360.8279418945312	-271.4472961425781	792.0311889648438	380.1659545898438	-218.8811645507812	1456.603637695312	36.8758430480957	-337.9263305664062
253	1.26	1332.364013671875	1447.458251953125	-470.8218383789062	1445.376708984375	1441.747436523438	-203.4598693847656	1354.370971679688	984.7092895507812	-445.106689453125	1389.664184570312	999.1531372070312	-173.5453948974609	1399.91455078125	936.1362915039062	-420.83349609375	1456.835693359375	70.62810516357422	-305.3909606933594	1412.676147460938	953.8818969726562	-190.3513641357422	1277.335815429688	858.1434936523438	-457.6105346679688	1260.307861328125	888.3591918945312	-124.3375244140625	1225.726806640625	986.4998779296876	-314.9111328125	1407.859375	646.927734375	-460.064453125	1426.286743164062	276.2574157714844	-392.336669921875	1343.308837890625	625.4468994140625	-423.2052001953125	1455.932373046875	563.0602416992188	-431.2889099121094	828.8422241210938	208.9004821777344	-145.975830078125	1413.970336914062	373.4598693847656	-411.4144592285156	1384.019165039062	538.1536254882812	-404.2707214355469	1334.03564453125	649.5420532226562	-133.2887878417969	1704.721923828125	120.2859725952148	-362.9251708984375	1260.166015625	669.7901611328125	-120.899055480957	1309.61328125	553.4287109375	-152.6252136230469	1229.556030273438	574.0120239257812	-137.5702056884766	1443.046997070312	482.3346252441406	-418.142333984375	1227.045532226562	500.5466003417969	-138.9241943359375	1495.411987304688	382.9533081054688	-417.0809936523438	1506.80712890625	282.9067687988281	-401.8477478027344	1135.312133789062	420.5899963378906	-138.2425384521484	1638.488403320312	75.39015197753906	-411.3793640136719	1094.120483398438	495.9354858398438	-142.6166381835938	1475.176513671875	45.25335693359375	-284.2502136230469	1041.989379882812	376.5744018554688	-154.6708221435547	1010.361572265625	450.0510864257812	-157.1688385009766	1501.144897460938	101.5489959716797	-372.8883972167969	870.0509033203125	344.3711853027344	-177.8895111083984	864.3624877929688	130.3105621337891	-195.7814636230469	842.259765625	387.1184997558594	-242.4438171386719	819.312744140625	364.0213317871094	-271.9589538574219	811.1475830078125	383.3686828613281	-219.1094512939453	1462.287963867188	38.92094802856445	-338.0077819824219
254	1.265	1349.067260742188	1442.50732421875	-471.8309020996094	1460.80419921875	1437.615112304688	-203.6529083251953	1369.681518554688	980.5701293945312	-444.7189025878906	1405.098022460938	995.5447998046876	-173.3910369873047	1415.203002929688	932.3001708984376	-421.0431518554688	1462.77734375	71.23957824707031	-305.0533447265625	1428.373168945312	950.3353271484376	-190.5967864990234	1292.31640625	853.9453125	-456.5278015136719	1276.627563476562	883.5161743164062	-124.1424713134766	1241.036743164062	982.2529296875	-315.4440307617188	1424.752197265625	643.408935546875	-458.3354187011719	1439.666381835938	272.8287658691406	-391.3838195800781	1359.811157226562	621.3180541992188	-422.3262939453125	1472.389404296875	559.372802734375	-430.0591735839844	845.7139892578125	212.241943359375	-145.401611328125	1429.074951171875	370.4042053222656	-411.177490234375	1400.83056640625	534.4157104492188	-403.8834228515625	1352.797973632812	645.4783325195312	-132.8519287109375	1713.16455078125	106.2939834594727	-358.5744934082031	1278.468139648438	664.4920043945312	-120.3938598632812	1330.12060546875	548.4017944335938	-150.6257781982422	1249.014770507812	568.4647216796875	-136.8922119140625	1459.4296875	478.4297485351562	-417.4456787109375	1247.623779296875	495.7085571289062	-137.4362945556641	1510.697875976562	378.4558410644531	-415.900146484375	1520.231201171875	278.1613159179688	-399.9283447265625	1154.832641601562	416.8868103027344	-137.1417694091797	1645.822387695312	64.759033203125	-409.0387573242188	1115.10107421875	493.0946655273438	-141.6193389892578	1478.454711914062	44.36626434326172	-284.1236267089844	1060.86376953125	374.6827392578125	-153.864990234375	1030.670776367188	448.4019775390625	-156.7148590087891	1509.915161132812	98.081298828125	-371.816162109375	888.500732421875	345.6797180175781	-179.0887451171875	879.8162841796875	132.5356140136719	-194.7095794677734	861.8797607421875	389.236083984375	-242.7226715087891	838.3134765625	366.21142578125	-271.913818359375	830.4890747070312	386.1619567871094	-219.574462890625	1466.525634765625	40.0647087097168	-338.8164978027344
